# xmcd CD database file generated by Grip 2.95
# 
# Track frame offsets:
#       150
#       19204
#       40824
#       46521
#       72596
#       86981
#       95186
#       109874
#       125651
#       145984
#       162264
#       168496
#       197281
#       208421
#       220818
#       246704
#       257519
#       273327
#       286894
#       296850
#       301442
#       312047
#       322310
# 
# Disc length: 4501 seconds
# 
# Revision: 3
# Processed by: cddbd v1.4b41PL2 Copyright (c) Steve Scherf et al.
# Submitted via: Grip 2.95
# 
DISCID=71119317
DTITLE=Karel Kryl - Karel Kryl, To nejlepsi
DYEAR=1900
DGENRE=
TTITLE0=Kral a klaun
TTITLE1=Velicenstvo kat
TTITLE2=Tak Vas tu mame
TTITLE3=Divny knize
TTITLE4=Andel
TTITLE5=Hle, jak se perou
TTITLE6=Morituri te salutant
TTITLE7=Ukolebavka
TTITLE8=Nevidoma divka
TTITLE9=Lasko
TTITLE10=Pochod Gustapa
TTITLE11=Tekute pisky
TTITLE12=Sametove jaro
TTITLE13=Pisen neznameho vojina
TTITLE14=Rakovina
TTITLE15=Maskary
TTITLE16=Marat ve vane
TTITLE17=Bludny holandan
TTITLE18=Zari
TTITLE19=Co reknou
TTITLE20=Habet
TTITLE21=Bratricku, zavirej vratka
TTITLE22=Dekuji
EXTD=
EXTT0=
EXTT1=
EXTT2=
EXTT3=
EXTT4=
EXTT5=
EXTT6=
EXTT7=
EXTT8=
EXTT9=
EXTT10=
EXTT11=
EXTT12=
EXTT13=
EXTT14=
EXTT15=
EXTT16=
EXTT17=
EXTT18=
EXTT19=
EXTT20=
EXTT21=
EXTT22=
PLAYORDER=
